<svg width="510" height="433" viewBox="0 0 510 433" fill="none" xmlns="http://www.w3.org/2000/svg">
<path d="M236.356 164.479C246.852 158.42 263.869 158.42 274.365 164.479L477.996 282.035C488.491 288.094 488.491 297.918 477.995 303.978L274.365 421.534C263.869 427.593 246.852 427.593 236.356 421.534L32.7252 303.978C22.2293 297.918 22.2293 288.094 32.7252 282.035L236.356 164.479Z" fill="#171717"/>
<path d="M236.114 98.0734C246.61 92.0141 263.628 92.0141 274.123 98.0734L477.754 215.629C488.25 221.689 488.25 231.513 477.754 237.572L274.123 355.128C263.628 361.187 246.61 361.187 236.114 355.128L32.4838 237.572C21.9878 231.513 21.9878 221.689 32.4838 215.629L236.114 98.0734Z" fill="#212121"/>
<g filter="url(#filter0_d_38_539)">
<path d="M236.118 24.9693C246.612 18.9111 263.626 18.9111 274.12 24.9693L477.758 142.529C488.252 148.587 488.252 158.41 477.758 164.468L274.12 282.028C263.626 288.086 246.612 288.086 236.118 282.028L32.4802 164.468C21.9862 158.41 21.9863 148.587 32.4802 142.529L236.118 24.9693Z" fill="#333333"/>
<path d="M273.254 25.4695L476.891 143.029C486.907 148.811 486.907 158.186 476.891 163.968L273.254 281.528C263.239 287.31 246.999 287.31 236.984 281.528L33.3464 163.968C23.3308 158.186 23.3308 148.811 33.3464 143.029L236.984 25.4695L237.458 25.2024C247.506 19.6886 263.395 19.7778 273.254 25.4695Z" stroke="url(#paint0_linear_38_539)" stroke-width="2"/>
</g>
<mask id="mask0_38_539" style="mask-type:alpha" maskUnits="userSpaceOnUse" x="28" y="21" width="458" height="265">
<path d="M275.271 26.4177L477.075 142.919C487.196 148.762 487.196 158.235 477.075 164.078L275.271 280.58C265.15 286.423 248.74 286.423 238.619 280.58L36.8149 164.078C26.6939 158.235 26.6941 148.762 36.8149 142.919L238.619 26.4177C248.74 20.5748 265.15 20.5748 275.271 26.4177Z" fill="#333333" stroke="url(#paint1_linear_38_539)" stroke-width="1.56743"/>
</mask>
<g mask="url(#mask0_38_539)">
<path d="M254.961 47.2532C284.044 54.379 313.741 62.5275 332.406 84.6209L333.286 85.6838C337.93 91.3992 339.843 96.3375 339.788 100.743C339.734 105.147 337.713 109.05 334.406 112.698C331.093 116.351 326.49 119.747 321.272 123.131C316.025 126.532 310.276 129.847 304.55 133.436C293.172 140.568 282.245 148.568 277.71 159.328C273.171 170.098 275.068 183.55 289.024 201.563C316.538 237.074 281.484 270.587 229.199 289.777C203.078 299.364 172.746 305.332 143.978 306.151C115.213 306.969 88.0796 302.641 68.226 291.684C48.1045 280.58 32.685 273.93 18.7008 270.048C4.68731 266.158 -7.83134 265.062 -22.0921 265.011C-50.143 264.909 -84.7559 268.819 -151.441 263.586L-154.641 263.33C-222.997 257.75 -269.762 224.205 -284.526 188.102C-299.177 152.274 -282.231 114.199 -224.093 98.5814L-222.712 98.2167C-192.773 90.4442 -173.533 84.1209 -160.197 77.6189C-146.827 71.1008 -139.423 64.4202 -133.095 55.9812C-120.648 39.3843 -112.4 16.1268 -70.9687 -26.4876L-68.971 -28.5314C-49.0941 -48.7536 -26.5428 -60.2002 -3.23706 -65.0344C20.0574 -69.8662 44.2587 -68.1233 67.5612 -61.789C114.222 -49.105 157.071 -18.0589 181.033 14.9443L181.04 14.955L181.049 14.9658C196.395 33.8258 225.467 40.0268 254.961 47.2532Z" fill="#333333" stroke="url(#paint2_linear_38_539)" stroke-width="1.56743"/>
<path d="M37.0629 113.179C46.6554 113.557 55.8764 116.275 58.8696 121.695L59.0075 121.955C61.8169 127.491 67.5194 131.406 73.0841 134.712C75.8963 136.383 78.5928 137.852 80.9791 139.345C83.1974 140.733 85.0454 142.081 86.2862 143.5L86.5263 143.785C93.3321 152.179 93.6363 155.705 92.4703 158.438C91.3433 161.079 88.4715 163.434 88.458 168.592L88.4656 169.1C88.6782 175.552 82.9375 183.744 73.901 188.394C69.4034 190.709 64.1507 192.116 58.4577 192.042C52.7707 191.968 46.4775 190.414 39.8995 186.616C34.3371 183.405 29.8482 181.593 25.8821 180.596C21.8953 179.594 18.5002 179.433 15.1995 179.463C11.8619 179.493 8.82381 179.705 5.17654 179.492C1.81658 179.295 -2.01267 178.734 -6.76709 177.294L-7.73039 176.993C-18.1608 173.66 -25.9399 168.212 -28.5273 162.132C-31.1035 156.078 -28.562 149.338 -18.1551 143.33C-10.3051 138.798 2.31594 132.381 13.886 119.248L14.4366 118.617C16.0473 116.754 19.221 115.295 23.2848 114.348C27.3416 113.403 32.2095 112.987 37.0629 113.179Z" fill="#333333" stroke="url(#paint3_linear_38_539)" stroke-width="1.56743"/>
<path d="M238.98 54.9025C265.915 61.6747 293.38 69.3222 310.576 89.6766L311.387 90.6555C320.113 101.397 318.851 109.25 312.947 116.048C306.977 122.921 296.277 128.726 285.82 135.379C275.419 141.996 265.381 149.392 261.175 159.329C256.965 169.276 258.629 181.689 271.33 198.318L271.33 198.317C296.345 231.171 263.976 262.376 215.622 280.246C191.467 289.173 163.409 294.73 136.731 295.467C110.474 296.192 85.611 292.249 67.0615 282.3L66.1836 281.821C47.387 271.435 32.9616 265.225 19.8891 261.606C6.78768 257.978 -4.90207 256.968 -18.1677 256.923C-44.256 256.837 -76.2739 260.461 -137.823 255.412L-140.776 255.165C-203.844 249.789 -247.062 218.806 -260.72 185.432C-274.381 152.05 -258.387 116.543 -203.6 102.016V102.015C-176.202 94.8443 -158.496 88.9795 -146.137 82.9314C-133.745 76.8675 -126.762 70.6372 -120.748 62.7848C-108.917 47.3366 -100.886 25.7648 -62.698 -13.5755L-60.8568 -15.4626C-42.6358 -34.0221 -21.8408 -44.5584 -0.295435 -49.037C21.2401 -53.5136 43.675 -51.9688 65.2964 -46.1959C108.594 -34.6354 148.426 -6.16241 170.475 24.3669L170.482 24.3766L170.491 24.3869C184.705 42.0417 211.667 48.0353 238.98 54.9025Z" fill="#333333" stroke="url(#paint4_linear_38_539)" stroke-width="1.56743"/>
<path d="M222.998 62.5523C247.787 68.9713 273.02 76.117 288.746 94.7324L289.487 95.6273C297.676 105.709 296.713 113.066 291.487 119.4C286.202 125.806 276.565 131.188 267.088 137.324C257.664 143.426 248.516 150.216 244.639 159.33C240.819 168.312 242.148 179.472 253.107 194.361L253.636 195.073C276.15 225.27 246.468 254.164 202.046 270.716C157.929 287.152 99.8972 291.186 64.961 272.407L64.1407 271.959C46.6688 262.291 33.2377 256.522 21.0769 253.164C8.8876 249.799 -1.97203 248.873 -14.2423 248.836C-38.3677 248.764 -67.7916 252.103 -124.205 247.24L-126.911 247.001C-184.691 241.829 -224.363 213.408 -236.915 182.761C-249.468 152.109 -234.814 119.487 -184.489 105.815V105.814C-159.631 99.2447 -143.459 93.8373 -132.077 88.243C-120.664 82.6337 -114.102 76.8552 -108.403 69.59C-97.1844 55.2891 -89.3754 35.4042 -54.4279 -0.663764L-52.7423 -2.39363C-36.1775 -19.2902 -17.1389 -28.9154 2.64643 -33.0386C22.4235 -37.1601 43.0924 -35.8148 63.0327 -30.6032C102.966 -20.1662 139.781 5.7339 159.917 33.7886L159.924 33.7983L159.932 33.8081C173.013 50.2577 197.864 56.0441 222.998 62.5523Z" fill="#333333" stroke="url(#paint5_linear_38_539)" stroke-width="1.56743"/>
<path d="M207.014 70.2016C230.016 76.3638 253.389 83.1226 267.587 100.599L267.588 100.599C275.241 110.021 274.575 116.883 270.027 122.754C265.426 128.693 256.85 133.65 248.354 139.269C239.909 144.855 231.649 151.041 228.102 159.332C224.55 167.632 225.753 177.964 235.94 191.825L235.939 191.826C255.958 219.367 228.96 245.953 188.468 261.185C148.258 276.311 95.3414 280.017 62.8607 262.515L62.097 262.097C45.9498 253.148 33.514 247.818 22.2649 244.723C10.9873 241.62 0.956745 240.779 -10.3184 240.75C-32.4804 240.691 -59.3088 243.745 -110.584 239.067L-113.044 238.838C-165.538 233.869 -201.663 208.009 -213.108 180.09C-224.554 152.171 -211.244 122.438 -165.391 109.618C-143.064 103.649 -128.423 98.6968 -118.017 93.5555C-107.583 88.4009 -101.442 83.0736 -96.0576 76.3955C-85.4505 63.2399 -77.8657 45.0463 -46.1569 12.2483L-44.6286 10.6757C-29.7201 -4.55778 -12.438 -13.2729 5.58758 -17.0408C23.6069 -20.8072 42.5107 -19.6597 60.77 -15.0092C97.339 -5.6952 131.138 17.6317 149.359 43.2111L149.373 43.2287C161.319 58.4727 184.059 64.052 207.014 70.2016Z" fill="#333333" stroke="url(#paint6_linear_38_539)" stroke-width="1.56743"/>
<path d="M191.027 77.8506C211.525 83.5638 232.297 89.7057 245.084 104.844L245.687 105.572C252.804 114.336 252.436 120.702 248.563 126.111C244.645 131.582 237.132 136.115 229.619 141.216C222.153 146.286 214.784 151.867 211.566 159.333C208.343 166.81 209.313 176.101 218.243 188.579L218.242 188.579C235.766 213.465 211.45 237.744 174.889 251.656C138.586 265.47 90.7849 268.85 60.7591 252.623L60.0538 252.236L60.0529 252.236C45.2302 244.004 33.7884 239.115 23.4507 236.283C13.0851 233.442 3.88482 232.685 -6.39484 232.663C-26.593 232.62 -50.8262 235.387 -96.9633 230.894L-99.1766 230.675C-146.386 225.911 -178.965 202.61 -189.304 177.42C-199.643 152.229 -187.669 125.376 -146.264 113.414V113.413C-126.484 108.046 -113.382 103.554 -103.957 98.8682C-94.5036 94.1688 -88.7833 89.2932 -83.7138 83.2028C-78.6744 77.1484 -74.2298 69.8251 -67.4104 60.3063C-60.5726 50.762 -51.2947 38.929 -36.5152 23.7452L-36.5161 23.7447C-23.2642 10.1748 -7.7374 2.37024 8.5292 -1.04223C24.7917 -4.45382 41.9301 -3.5037 58.5086 0.586079C91.7131 8.77737 122.494 29.531 138.801 52.634L138.806 52.6418L138.812 52.6501C149.624 66.6875 170.249 72.0595 191.027 77.8506Z" fill="#333333" stroke="url(#paint7_linear_38_539)" stroke-width="1.56743"/>
<path d="M55.8822 16.3929C85.7221 23.462 113.483 41.6433 127.875 62.2683L127.879 62.2756L127.884 62.2825C137.559 75.1127 156.068 80.278 174.67 85.7111C193.316 91.1573 212.157 96.8906 223.419 110.756L223.419 110.756C230.001 118.863 229.933 124.737 226.732 129.684C223.496 134.687 217.043 138.795 210.514 143.377C204.028 147.93 197.549 152.906 194.661 159.547C191.767 166.2 192.505 174.452 200.18 185.548L200.181 185.547C215.206 207.778 193.57 229.748 160.942 242.34C128.549 254.842 85.8625 257.895 58.2909 242.944L57.643 242.587L57.6422 242.587C44.1438 235.073 33.6962 230.624 24.2699 228.054C14.8161 225.476 6.4452 224.804 -2.83884 224.789C-21.0726 224.76 -42.71 227.242 -83.7074 222.935L-85.6746 222.725C-127.601 218.166 -156.634 197.425 -165.867 174.963C-175.096 152.508 -164.471 128.543 -127.543 117.432C-110.288 112.664 -98.7146 108.626 -90.2636 104.393C-81.7919 100.149 -76.4944 95.7259 -71.7401 90.2235C-67.0117 84.751 -62.7808 78.1567 -56.5124 69.6287C-50.229 61.0801 -41.8514 50.5205 -28.7694 37.0268L-28.7703 37.0263C-17.1756 25.1205 -3.40496 18.2266 11.1033 15.1693C25.6099 12.1124 40.9843 12.8636 55.8822 16.3929Z" fill="#333333" stroke="url(#paint8_linear_38_539)" stroke-width="1.56743"/>
<path d="M52.8241 32.4527C79.2992 38.4004 104.036 54.0088 116.511 72.1537L116.516 72.1596L116.52 72.1654C125.058 83.7873 141.447 88.7466 157.873 93.8222C174.087 98.8321 190.401 103.969 200.251 115.633L200.716 116.193C206.765 123.643 206.994 129.025 204.463 133.513C201.906 138.046 196.514 141.729 190.972 145.791C185.467 149.826 179.88 154.197 177.322 160.011C174.759 165.839 175.261 173.05 181.679 182.762L181.679 182.762C194.215 202.34 175.254 222.004 146.559 233.275C118.077 244.463 80.5061 247.192 55.3875 233.516L54.7964 233.19C42.622 226.394 33.1682 222.385 24.6531 220.077C16.1111 217.761 8.56951 217.174 0.281241 217.166C-15.9871 217.151 -35.0276 219.348 -70.8832 215.227L-72.6043 215.026C-109.251 210.672 -134.738 192.489 -142.864 172.757C-150.925 153.181 -141.842 132.266 -109.956 121.927L-109.198 121.685C-94.4991 117.521 -84.4712 113.944 -77.0056 110.168C-69.5164 106.38 -64.6402 102.411 -60.2015 97.4973C-55.7843 92.6074 -51.7687 86.7422 -46.0513 79.205C-40.3216 71.6517 -32.8446 62.3642 -21.4595 50.5599L-21.4604 50.5594C-11.5233 40.3181 0.490916 34.3333 13.2423 31.631C25.9947 28.9284 39.6065 29.4834 52.8241 32.4527Z" fill="#333333" stroke="url(#paint9_linear_38_539)" stroke-width="1.56743"/>
<path d="M49.7477 48.5274C72.8583 53.3548 94.5687 66.3911 105.126 82.0526L105.129 82.0575L105.131 82.0619C112.53 92.4738 126.797 97.2259 141.049 101.945C155.124 106.605 169.211 111.239 177.594 121.167L177.988 121.644C183.505 128.439 184.035 133.332 182.17 137.362C180.29 141.427 175.954 144.684 171.401 148.224C166.878 151.739 162.186 155.504 159.959 160.49C157.796 165.335 157.979 171.275 162.684 179.214L163.153 179.989C173.201 196.918 156.911 214.275 132.15 224.225C107.583 234.097 75.1278 236.504 52.4609 224.103L51.9272 223.807L51.9264 223.807C41.076 217.73 32.6171 214.159 25.013 212.113C17.3826 210.061 10.6693 209.558 3.37716 209.558C-10.9248 209.557 -27.3669 211.468 -58.0782 207.535L-59.5514 207.343C-90.9237 203.195 -112.866 187.568 -119.885 170.564C-126.899 153.574 -118.961 135.369 -90.9337 125.969C-78.7572 122.402 -70.2591 119.28 -63.77 115.958C-57.2653 112.627 -52.8133 109.112 -48.6904 104.787C-44.5845 100.481 -40.7816 95.344 -35.6143 88.7968C-30.7613 82.6478 -24.6774 75.2186 -15.9524 65.9789L-14.1721 64.1065C-5.89366 55.5312 4.3629 50.4556 15.3588 48.108C26.3592 45.7595 38.2099 46.1174 49.7477 48.5274Z" fill="#333333" stroke="url(#paint10_linear_38_539)" stroke-width="1.56743"/>
<path d="M46.644 64.6241C66.0826 68.2752 84.4841 78.472 93.292 91.3548L93.703 91.97L93.7081 91.9768C99.9657 101.176 112.102 105.722 124.183 110.086C136.121 114.397 147.983 118.527 154.901 126.722L155.227 127.115C160.212 133.257 161.044 137.663 159.842 141.24C158.633 144.836 155.351 147.669 151.791 150.681C148.253 153.673 144.458 156.833 142.563 160.988C140.661 165.158 140.692 170.28 144.586 177.221L144.586 177.222C152.164 191.509 138.535 206.568 117.703 215.198C97.2186 223.683 70.1477 225.804 49.9787 214.97L49.0239 214.444L49.0231 214.444C39.4959 209.084 32.0297 205.954 25.3362 204.171C18.6173 202.38 12.7345 201.963 6.43888 201.97C-5.89551 201.984 -19.7361 203.608 -45.2997 199.864L-46.5268 199.682C-72.6314 195.74 -91.0299 182.666 -96.9418 168.393C-102.848 154.132 -96.2518 138.798 -72.6469 130.254C-53.3375 124.311 -44.856 119.597 -37.216 112.101C-33.4218 108.378 -29.833 103.968 -25.2149 98.4105C-20.8794 93.1928 -15.6179 86.9393 -8.39044 79.2335L-6.91884 77.6731C-0.300544 70.7656 8.19689 66.598 17.4403 64.6046C26.6919 62.6094 36.7846 62.7723 46.644 64.6241Z" fill="#333333" stroke="url(#paint11_linear_38_539)" stroke-width="1.56743"/>
<path d="M43.505 80.7524C59.636 83.3058 75.0304 90.9957 81.9095 101.418L82.2301 101.916L82.2326 101.919C87.3455 109.904 97.3462 114.242 107.257 118.25C116.906 122.154 126.398 125.726 131.897 132.001L132.415 132.616C136.87 138.107 138.011 142.031 137.467 145.162C136.922 148.294 134.685 150.702 132.122 153.18C129.573 155.643 126.677 158.197 125.116 161.516C123.547 164.852 123.338 168.927 125.97 174.483L125.969 174.484C131.079 186.135 120.101 198.896 103.201 206.202C94.772 209.846 84.9373 212.1 75.0074 212.184C65.4089 212.266 55.6581 210.321 46.9134 205.58L46.0702 205.113L46.0693 205.112C37.8649 200.469 31.3925 197.779 25.6091 196.258C19.8015 194.73 14.7487 194.397 9.45022 194.412C-1.07928 194.441 -12.5056 195.821 -33.5382 192.053C-54.3875 188.318 -69.2434 177.794 -74.0478 166.251C-78.8444 154.727 -73.598 142.267 -54.4239 134.574C-40.1954 129.833 -32.7923 125.75 -25.798 119.449C-22.3164 116.312 -18.9394 112.629 -14.8692 108.06C-11.3036 104.057 -7.19973 99.3664 -2.00795 93.7389L0.286558 91.2688C5.24232 86.0326 11.9778 82.7715 19.474 81.1313C26.9821 79.4886 35.3218 79.4571 43.505 80.7524Z" fill="#333333" stroke="url(#paint12_linear_38_539)" stroke-width="1.56743"/>
<path d="M40.3153 96.9294C53.1513 98.3908 65.5071 103.58 70.45 111.524L70.6792 111.904C74.6431 118.668 82.4998 122.797 90.2397 126.454C97.7944 130.023 105.107 133.098 109.148 137.712L109.528 138.164C113.455 143.006 114.91 146.454 115.023 149.149C115.137 151.829 113.927 153.813 112.362 155.746C110.81 157.663 108.813 159.623 107.596 162.086C106.363 164.582 105.909 167.605 107.275 171.774L107.274 171.775C109.929 180.806 101.583 191.277 88.6167 197.257C82.1537 200.238 74.6055 202.072 66.7854 202.076C59.2286 202.08 51.3147 200.375 43.7701 196.236L43.0411 195.828C36.1585 191.901 30.6788 189.65 25.8048 188.391C20.908 187.126 16.6841 186.879 12.3836 186.901C4.12464 186.943 -4.34984 187.96 -19.1492 184.797L-20.6013 184.478C-36.218 180.949 -47.5338 172.967 -51.23 164.156C-54.9166 155.367 -51.0215 145.772 -36.251 138.928C-17.9234 131.833 -10.9937 125.116 7.41403 104.912C13.9668 97.8181 27.2819 95.4456 40.3153 96.9294Z" fill="#333333" stroke="url(#paint13_linear_38_539)" stroke-width="1.56743"/>
</g>
<defs>
<filter id="filter0_d_38_539" x="0.609741" y="0.425659" width="509.018" height="314.146" filterUnits="userSpaceOnUse" color-interpolation-filters="sRGB">
<feFlood flood-opacity="0" result="BackgroundImageFix"/>
<feColorMatrix in="SourceAlpha" type="matrix" values="0 0 0 0 0 0 0 0 0 0 0 0 0 0 0 0 0 0 127 0" result="hardAlpha"/>
<feOffset dy="4"/>
<feGaussianBlur stdDeviation="12"/>
<feComposite in2="hardAlpha" operator="out"/>
<feColorMatrix type="matrix" values="0 0 0 0 0.509804 0 0 0 0 0.490196 0 0 0 0 0.929412 0 0 0 0.3 0"/>
<feBlend mode="normal" in2="BackgroundImageFix" result="effect1_dropShadow_38_539"/>
<feBlend mode="normal" in="SourceGraphic" in2="effect1_dropShadow_38_539" result="shape"/>
</filter>
<linearGradient id="paint0_linear_38_539" x1="179.175" y1="57.8424" x2="299.92" y2="267.101" gradientUnits="userSpaceOnUse">
<stop stop-color="#DEC880"/>
<stop offset="0.223958" stop-color="white"/>
<stop offset="0.578125" stop-color="#FF347D"/>
<stop offset="1" stop-color="#827DED"/>
</linearGradient>
<linearGradient id="paint1_linear_38_539" x1="181.575" y1="58.5653" x2="301.407" y2="266.242" gradientUnits="userSpaceOnUse">
<stop stop-color="#DEC880"/>
<stop offset="0.223958" stop-color="white"/>
<stop offset="0.578125" stop-color="#FF347D"/>
<stop offset="1" stop-color="#827DED"/>
<stop offset="1" stop-color="#827DED"/>
</linearGradient>
<linearGradient id="paint2_linear_38_539" x1="-100.076" y1="-17.1971" x2="116.933" y2="358.897" gradientUnits="userSpaceOnUse">
<stop stop-color="#DEC880"/>
<stop offset="0.223958" stop-color="white"/>
<stop offset="0.578125" stop-color="#FF347D"/>
<stop offset="1" stop-color="#827DED"/>
</linearGradient>
<linearGradient id="paint3_linear_38_539" x1="8.22296" y1="120.907" x2="54.1961" y2="200.584" gradientUnits="userSpaceOnUse">
<stop stop-color="#DEC880"/>
<stop offset="0.223958" stop-color="white"/>
<stop offset="0.578125" stop-color="#FF347D"/>
<stop offset="1" stop-color="#827DED"/>
</linearGradient>
<linearGradient id="paint4_linear_38_539" x1="-90.0596" y1="-4.7411" x2="111.384" y2="344.378" gradientUnits="userSpaceOnUse">
<stop stop-color="#DEC880"/>
<stop offset="0.223958" stop-color="white"/>
<stop offset="0.578125" stop-color="#FF347D"/>
<stop offset="1" stop-color="#827DED"/>
</linearGradient>
<linearGradient id="paint5_linear_38_539" x1="-80.0431" y1="7.71514" x2="105.836" y2="329.86" gradientUnits="userSpaceOnUse">
<stop stop-color="#DEC880"/>
<stop offset="0.223958" stop-color="white"/>
<stop offset="0.578125" stop-color="#FF347D"/>
<stop offset="1" stop-color="#827DED"/>
</linearGradient>
<linearGradient id="paint6_linear_38_539" x1="-70.0268" y1="20.1714" x2="100.288" y2="315.343" gradientUnits="userSpaceOnUse">
<stop stop-color="#DEC880"/>
<stop offset="0.223958" stop-color="white"/>
<stop offset="0.578125" stop-color="#FF347D"/>
<stop offset="1" stop-color="#827DED"/>
</linearGradient>
<linearGradient id="paint7_linear_38_539" x1="-60.0112" y1="32.6281" x2="94.7415" y2="300.829" gradientUnits="userSpaceOnUse">
<stop stop-color="#DEC880"/>
<stop offset="0.223958" stop-color="white"/>
<stop offset="0.578125" stop-color="#FF347D"/>
<stop offset="1" stop-color="#827DED"/>
</linearGradient>
<linearGradient id="paint8_linear_38_539" x1="-50.1111" y1="45.1513" x2="89.0809" y2="286.385" gradientUnits="userSpaceOnUse">
<stop stop-color="#DEC880"/>
<stop offset="0.223958" stop-color="white"/>
<stop offset="0.578125" stop-color="#FF347D"/>
<stop offset="1" stop-color="#827DED"/>
</linearGradient>
<linearGradient id="paint9_linear_38_539" x1="-40.3484" y1="57.7537" x2="83.2853" y2="272.023" gradientUnits="userSpaceOnUse">
<stop stop-color="#DEC880"/>
<stop offset="0.223958" stop-color="white"/>
<stop offset="0.578125" stop-color="#FF347D"/>
<stop offset="1" stop-color="#827DED"/>
</linearGradient>
<linearGradient id="paint10_linear_38_539" x1="-30.5934" y1="70.3611" x2="77.4853" y2="257.673" gradientUnits="userSpaceOnUse">
<stop stop-color="#DEC880"/>
<stop offset="0.223958" stop-color="white"/>
<stop offset="0.578125" stop-color="#FF347D"/>
<stop offset="1" stop-color="#827DED"/>
</linearGradient>
<linearGradient id="paint11_linear_38_539" x1="-20.8505" y1="82.9748" x2="71.6784" y2="243.337" gradientUnits="userSpaceOnUse">
<stop stop-color="#DEC880"/>
<stop offset="0.223958" stop-color="white"/>
<stop offset="0.578125" stop-color="#FF347D"/>
<stop offset="1" stop-color="#827DED"/>
</linearGradient>
<linearGradient id="paint12_linear_38_539" x1="-11.1249" y1="95.599" x2="65.8631" y2="229.028" gradientUnits="userSpaceOnUse">
<stop stop-color="#DEC880"/>
<stop offset="0.223958" stop-color="white"/>
<stop offset="0.578125" stop-color="#FF347D"/>
<stop offset="1" stop-color="#827DED"/>
</linearGradient>
<linearGradient id="paint13_linear_38_539" x1="-1.42701" y1="108.239" x2="60.0362" y2="214.762" gradientUnits="userSpaceOnUse">
<stop stop-color="#DEC880"/>
<stop offset="0.223958" stop-color="white"/>
<stop offset="0.578125" stop-color="#FF347D"/>
<stop offset="1" stop-color="#827DED"/>
</linearGradient>
</defs>
</svg>
